<?xml version="1.0" standalone="no"?>
<!DOCTYPE svg PUBLIC "-//W3C//DTD SVG 20010904//EN"
 "http://www.w3.org/TR/2001/REC-SVG-20010904/DTD/svg10.dtd">
<svg version="1.0" xmlns="http://www.w3.org/2000/svg"
 width="556.000000pt" height="834.000000pt" viewBox="0 0 556.000000 834.000000"
 preserveAspectRatio="xMidYMid meet">

<g transform="translate(0.000000,834.000000) scale(0.100000,-0.100000)"
fill="#000000" stroke="none">
<path d="M5395 2313 c-22 -3 -47 -11 -56 -19 -10 -9 -32 -15 -50 -15 -19 0
-47 -5 -62 -11 -20 -8 -39 -8 -69 1 -62 19 -222 14 -293 -8 -83 -26 -194 -51
-229 -51 -42 0 -108 -21 -132 -42 -11 -10 -33 -18 -48 -18 -15 0 -42 -6 -59
-14 -18 -8 -54 -19 -82 -26 -63 -16 -105 -40 -105 -60 0 -11 -3 -11 -8 -3 -5
8 -12 9 -22 2 -13 -8 -13 -11 3 -20 9 -5 17 -16 17 -23 0 -8 11 -17 25 -20 20
-5 25 -13 25 -36 0 -20 5 -30 15 -30 8 0 15 -7 15 -15 0 -8 7 -15 15 -15 8 0
15 6 15 14 0 21 123 21 140 1 10 -12 9 -15 -4 -15 -9 0 -16 -4 -16 -8 0 -15
59 -52 82 -51 19 1 18 3 -7 9 -28 7 -27 8 13 9 23 0 42 -3 42 -9 0 -5 11 -10
25 -10 20 0 25 -5 25 -26 0 -18 4 -25 14 -21 7 3 18 1 24 -5 8 -8 16 -7 27 2
10 8 19 10 23 4 10 -14 272 -16 289 -3 8 8 28 9 56 4 23 -4 71 -9 107 -10 36
-2 81 -10 100 -19 l35 -16 -80 2 c-44 0 -102 -2 -130 -5 -100 -11 -535 -7
-662 7 -74 8 -99 -1 -57 -21 25 -11 25 -12 4 -6 -14 3 -63 7 -110 9 -58 1 -74
0 -50 -5 21 -5 -9 -7 -75 -5 -60 2 -125 4 -142 4 -26 0 -36 6 -49 31 l-16 32
-70 -6 c-64 -6 -72 -4 -88 16 -14 16 -16 27 -8 40 12 23 -2 40 -28 35 -20 -3
-33 -48 -37 -123 -2 -31 -7 -42 -24 -50 -24 -10 -31 -25 -12 -25 6 0 19 5 30
10 23 13 24 8 3 -36 -9 -19 -14 -45 -12 -57 4 -23 3 -24 -41 -15 -40 8 -221 4
-331 -6 -132 -13 -190 -16 -390 -21 -123 -4 -226 -8 -229 -11 -2 -2 9 -4 25
-5 25 0 26 -1 9 -8 -11 -4 -60 -8 -110 -8 -67 -1 -79 1 -48 6 72 12 60 21 -28
21 -73 -1 -82 -2 -66 -14 16 -12 15 -14 -13 -11 -17 1 -33 5 -37 9 -3 3 -13 6
-22 6 -13 0 -14 -2 -2 -9 9 -6 -34 -10 -114 -10 -70 -1 -133 -4 -139 -8 -30
-19 -559 5 -579 26 -10 11 -3 12 33 6 54 -9 50 -9 124 -2 58 7 88 17 50 17
-10 0 -24 4 -31 8 -6 4 46 6 115 5 130 -2 200 4 185 16 -22 19 -87 32 -123 26
-32 -5 -40 -4 -40 8 0 9 10 19 23 23 19 7 17 9 -23 21 -39 11 -46 11 -56 -2
-14 -19 -32 -19 -77 0 -19 8 -38 11 -41 7 -4 -3 -11 0 -15 7 -6 10 -13 11 -27
3 -18 -10 -17 -11 9 -21 16 -6 43 -11 60 -11 25 0 29 -3 17 -11 -11 -7 0 -8
38 -5 33 3 52 1 52 -5 0 -6 6 -9 14 -6 12 5 26 -11 26 -29 0 -8 -31 -4 -101
12 -38 9 -67 20 -63 25 3 5 0 9 -5 9 -6 0 -11 -7 -11 -15 0 -8 -6 -15 -12 -16
-7 0 -2 -5 12 -11 20 -9 22 -12 8 -15 -9 -2 -26 1 -37 6 -11 6 -22 7 -25 2 -9
-14 -58 -20 -104 -11 -26 4 -45 4 -49 -3 -7 -11 -131 -1 -148 12 -5 5 -21 7
-35 6 -14 -2 -49 -4 -79 -4 -42 -1 -52 -4 -48 -16 4 -8 1 -17 -5 -21 -7 -4 -8
-3 -4 4 4 7 1 12 -8 12 -8 0 -18 -9 -21 -20 -4 -14 -15 -20 -33 -19 -17 1 -21
3 -9 6 9 2 17 9 17 15 0 6 -22 8 -55 6 -30 -1 -55 0 -55 3 0 11 -124 18 -135
8 -5 -5 -14 -9 -20 -9 -5 0 -1 6 10 12 19 11 19 11 0 19 -19 7 67 14 123 9 12
-1 22 4 22 11 0 9 3 10 10 3 6 -6 30 -8 63 -3 85 12 129 11 121 -3 -5 -8 0 -7
11 2 12 10 41 15 89 15 43 0 76 5 84 12 9 9 19 10 32 3 10 -6 34 -10 52 -10
18 0 42 -7 52 -15 26 -20 36 -19 37 3 0 10 3 12 6 5 2 -7 11 -13 20 -13 13 0
13 2 -1 15 -8 8 -32 15 -55 15 -23 0 -41 4 -41 9 0 16 42 17 90 3 25 -7 52
-11 60 -9 8 2 -6 10 -32 17 -27 7 -48 16 -48 21 0 5 12 6 26 3 19 -5 25 -4 20
5 -5 7 -35 10 -88 9 -71 -3 -81 -1 -84 15 -2 14 6 17 39 18 31 2 34 3 14 6
-15 2 -25 9 -22 14 4 5 0 9 -9 9 -8 0 -16 4 -18 10 -2 5 -29 12 -62 16 -48 6
-58 5 -54 -7 2 -8 21 -15 41 -17 42 -4 69 -28 46 -42 -7 -5 -25 -6 -39 -2 -14
3 -36 5 -50 4 -41 -3 -379 -1 -457 3 -42 2 -73 0 -73 -6 0 -5 6 -9 14 -9 8 0
17 -7 20 -16 5 -12 1 -14 -17 -8 -72 23 -99 28 -167 27 -41 0 -93 -4 -115 -9
-22 -6 -54 -7 -70 -4 -38 8 -63 -11 -40 -30 8 -7 15 -19 15 -26 0 -17 17 -18
23 -1 3 6 6 1 6 -12 1 -22 -2 -23 -37 -16 -20 4 -39 11 -40 16 -2 5 -23 9 -47
9 -49 0 -75 8 -75 22 0 6 7 8 14 5 10 -4 13 -1 10 7 -3 8 -17 14 -31 14 -15 0
-20 -3 -13 -8 7 -4 9 -13 6 -19 -4 -6 -12 -9 -17 -5 -6 3 -57 8 -115 10 l-104
4 0 -26 c0 -20 5 -25 23 -24 35 3 44 -1 22 -10 -15 -6 -9 -8 23 -8 24 1 46 6
49 11 3 6 2 7 -3 4 -6 -3 -16 -2 -23 2 -23 15 56 31 89 18 8 -3 29 -10 45 -16
29 -10 28 -10 -8 -4 -28 4 -37 2 -35 -8 2 -7 -1 -14 -7 -14 -5 -1 -22 -7 -36
-13 -24 -10 -95 -8 -126 3 -26 9 -12 -12 15 -22 l27 -11 -27 -1 c-27 -1 -28
-3 -28 -55 l0 -54 98 3 c163 6 1440 20 2635 30 408 4 793 8 855 9 89 3 112 0
112 -10 0 -9 -13 -14 -37 -15 -33 -1 -35 -2 -13 -8 34 -10 130 -2 151 12 21
15 142 10 132 -6 -4 -7 0 -8 13 -3 32 13 165 25 257 23 48 -1 88 2 90 6 1 5
14 4 27 -1 14 -5 62 -8 107 -8 60 1 79 -2 72 -11 -7 -7 -5 -13 3 -16 7 -3 -19
-6 -59 -6 -48 -1 -73 3 -77 12 -5 9 -7 9 -12 0 -4 -9 -32 -10 -105 -6 -71 4
-99 3 -99 -5 0 -8 -20 -12 -52 -12 -38 0 -49 -3 -38 -10 10 -6 -39 -9 -141 -8
-86 0 -161 -2 -165 -5 -5 -3 -166 -7 -357 -9 -192 -1 -351 -6 -352 -9 -7 -10
-184 -9 -190 1 -4 6 -13 10 -22 10 -13 0 -14 -2 -2 -17 12 -15 12 -16 -4 -10
-10 4 -41 7 -68 7 -34 0 -48 4 -43 11 9 15 -70 2 -110 -17 -34 -16 -50 -18
-41 -4 4 6 -10 10 -34 10 -26 0 -41 -5 -41 -12 0 -10 -2 -10 -8 0 -6 8 -24 12
-50 10 -32 -2 -42 -7 -42 -20 0 -15 4 -16 25 -8 14 5 25 6 25 1 0 -11 -25 -21
-51 -21 -11 0 -17 5 -14 10 3 6 1 10 -4 10 -6 0 -11 -5 -11 -11 0 -5 -5 -7
-12 -3 -8 5 -6 10 5 19 9 7 12 16 8 24 -5 8 -11 9 -15 3 -7 -12 -96 -6 -110 8
-5 5 -15 10 -20 10 -6 0 -4 -5 4 -10 11 -7 2 -10 -32 -10 -29 0 -48 -5 -48
-11 0 -7 11 -9 31 -5 21 4 29 2 27 -6 -6 -17 -148 -19 -148 -1 0 16 -12 17
-28 1 -10 -10 -15 -10 -21 0 -11 18 -72 21 -78 5 -3 -9 5 -13 24 -13 22 0 25
-2 13 -10 -8 -5 -30 -10 -49 -10 -20 0 -40 -7 -48 -17 -10 -13 -10 -9 2 15 18
37 9 41 -42 21 -15 -6 -73 -12 -128 -14 -55 -2 -111 -6 -125 -9 -13 -3 -39 -2
-57 3 -20 6 -33 6 -33 0 0 -5 6 -9 13 -10 6 0 3 -4 -8 -9 -31 -13 -39 -12 -25
5 10 12 9 15 -7 15 -11 0 -23 3 -26 7 -10 10 -147 12 -147 3 0 -5 -12 -11 -28
-13 -15 -2 11 -2 58 0 66 4 82 2 70 -7 -12 -9 -10 -11 12 -7 16 2 29 -1 32 -8
4 -12 -17 -11 -54 2 -31 12 -50 9 -67 -9 -18 -20 -33 -24 -33 -8 0 6 8 11 18
12 9 0 -3 4 -28 7 -25 4 -49 3 -55 -1 -16 -14 -55 -9 -49 6 4 10 -2 14 -18 13
-13 0 -32 4 -42 8 -13 5 -17 5 -13 -2 7 -11 -121 -27 -145 -18 -29 11 -118 13
-118 3 0 -6 9 -8 20 -5 11 3 20 1 20 -4 0 -5 12 -9 28 -10 15 0 21 -3 14 -6
-6 -2 -9 -10 -6 -15 5 -7 2 -8 -7 -2 -8 5 -32 10 -54 10 -22 1 -51 5 -65 9
-19 5 -22 4 -10 -4 11 -8 7 -9 -20 -5 -42 8 -51 14 -22 14 12 0 22 4 22 9 0
12 -29 23 -41 16 -5 -4 -24 -2 -42 3 -21 6 -48 5 -77 -2 -25 -6 -79 -11 -121
-10 -52 1 -76 -3 -76 -11 0 -7 17 -12 41 -13 79 -2 116 -7 116 -14 0 -5 -13
-9 -30 -9 -47 -2 -50 -3 -60 -19 -9 -13 -11 -13 -19 -1 -6 10 -21 12 -50 8
-30 -4 -41 -2 -41 8 0 7 -6 15 -13 18 -20 8 -78 -6 -75 -18 2 -6 -17 -11 -42
-12 -25 -1 -65 -5 -90 -9 -25 -5 -61 -8 -80 -9 -33 0 -35 -2 -38 -36 l-3 -36
63 -1 c172 -3 509 4 658 14 149 9 353 17 495 18 72 1 132 4 135 8 6 7 177 17
388 22 67 1 125 6 129 9 10 10 45 8 39 -2 -4 -5 11 -5 34 0 22 5 140 11 263
13 122 1 278 8 347 15 69 6 161 13 205 15 44 2 175 11 290 19 271 21 700 45
935 52 102 4 259 11 350 16 446 25 885 34 896 18 3 -5 13 -9 22 -8 14 0 14 2
-3 10 -17 8 -16 8 5 3 14 -4 90 -8 170 -9 102 -2 129 -1 90 5 -30 4 -77 9
-105 9 -60 2 -43 21 18 21 20 0 37 5 37 10 0 6 -6 10 -12 11 -24 1 53 23 100
28 7 1 12 16 12 40 0 34 -3 39 -27 44 -16 3 -34 1 -40 -5 -7 -6 -13 -6 -13 -2
0 5 -74 10 -165 10 -91 0 -165 -2 -165 -5 0 -9 -359 -18 -455 -11 -27 1 -137
2 -243 0 -106 -1 -195 0 -198 2 -8 8 154 20 176 13 11 -3 20 -2 20 3 0 11 -15
14 -167 33 -71 9 -96 9 -107 0 -10 -8 -58 -12 -148 -11 -255 2 -241 3 -234
-24 5 -20 2 -24 -18 -22 -20 1 -22 4 -14 20 5 10 8 30 5 45 -7 36 7 58 43 66
16 4 30 11 30 16 0 5 9 9 20 9 11 0 20 -4 20 -10 0 -5 8 -10 18 -10 14 0 15 2
2 10 -10 7 23 10 105 9 75 0 125 -5 134 -12 12 -9 13 -9 7 0 -5 10 20 11 116
7 209 -8 237 -11 251 -22 10 -8 16 -9 24 -1 10 10 138 9 416 -2 9 0 17 -4 17
-10 0 -12 46 -12 70 1 22 12 73 3 64 -11 -3 -5 -18 -9 -33 -9 -16 0 -34 -7
-41 -15 -7 -8 -20 -15 -29 -15 -13 0 -13 -2 -2 -9 16 -11 161 -3 273 14 32 5
53 4 62 -4 10 -8 16 -9 21 -1 3 5 32 10 63 10 67 0 109 -9 92 -20 -6 -4 2 -7
19 -6 32 1 41 10 19 19 -10 4 -10 6 0 6 8 1 12 19 12 55 0 50 -2 55 -27 63
l-28 10 28 6 27 7 0 295 0 295 -62 -2 c-35 -1 -81 -3 -103 -5z m98 -577 c7
-18 -22 -31 -37 -16 -7 7 -6 10 3 10 7 0 9 5 6 10 -3 6 0 10 8 10 8 0 17 -6
20 -14z m-68 -16 c-3 -5 -13 -10 -21 -10 -8 0 -12 5 -9 10 3 6 13 10 21 10 8
0 12 -4 9 -10z m-608 -26 c-3 -3 -12 -4 -19 -1 -8 3 -5 6 6 6 11 1 17 -2 13
-5z m600 -10 c-3 -3 -12 -4 -19 -1 -8 3 -5 6 6 6 11 1 17 -2 13 -5z m-53 -49
c3 -9 0 -15 -9 -15 -8 0 -15 7 -15 15 0 8 4 15 9 15 5 0 11 -7 15 -15z m-167
-1 c-3 -3 -12 -4 -19 -1 -8 3 -5 6 6 6 11 1 17 -2 13 -5z m323 2 c0 -2 -7 -6
-15 -10 -8 -3 -15 -1 -15 4 0 6 7 10 15 10 8 0 15 -2 15 -4z m-215 -16 c-3 -5
-13 -10 -21 -10 -8 0 -12 5 -9 10 3 6 13 10 21 10 8 0 12 -4 9 -10z m-67 -7
c-10 -2 -18 -8 -18 -13 0 -11 -49 -19 -55 -10 -3 5 1 11 7 14 7 3 4 4 -7 1
-11 -2 -27 0 -35 5 -10 7 7 9 55 9 39 -1 62 -3 53 -6z m-4903 -23 c-3 -5 -10
-10 -16 -10 -5 0 -9 5 -9 10 0 6 7 10 16 10 8 0 12 -4 9 -10z m485 -1 c16 -6
-105 -13 -155 -10 -48 4 -54 6 -30 11 25 5 169 5 185 -1z m-240 -9 c0 -5 -7
-7 -15 -4 -8 4 -15 8 -15 10 0 2 7 4 15 4 8 0 15 -4 15 -10z m-265 -10 c3 -5
18 -10 32 -10 37 0 23 -10 -21 -15 -23 -3 -35 -1 -31 5 4 6 -9 10 -32 11 -34
1 -35 2 -13 9 36 11 58 11 65 0z m135 -10 c0 -12 -40 -13 -58 -1 -8 5 0 8 23
9 19 1 35 -3 35 -8z m310 0 c0 -5 -9 -10 -21 -10 -11 0 -17 5 -14 10 3 6 13
10 21 10 8 0 14 -4 14 -10z m576 -1 c3 -5 -11 -9 -31 -9 -20 0 -34 4 -31 9 3
5 17 9 31 9 14 0 28 -4 31 -9z m-822 -14 c-4 -8 -10 -15 -15 -15 -4 0 -6 7 -3
15 4 8 10 15 15 15 4 0 6 -7 3 -15z m144 4 c-7 -4 -6 -9 1 -13 6 -4 9 -12 5
-17 -4 -6 -11 -6 -20 2 -9 8 -31 9 -64 5 -35 -5 -50 -3 -50 5 0 6 9 9 20 6 11
-3 20 -1 20 3 0 5 -8 10 -17 12 -10 3 12 4 49 4 36 -1 62 -4 56 -7z m-542 -6
c-22 -4 -26 -7 -15 -14 12 -8 12 -10 -1 -19 -11 -7 -16 -5 -18 5 -2 8 -8 15
-13 15 -5 0 -9 4 -9 8 0 5 19 9 43 9 29 0 33 -1 13 -4z m89 -23 c18 -8 17 -9
-7 -9 -16 -1 -28 4 -28 9 0 12 8 12 35 0z m135 6 c0 -2 -11 -6 -25 -8 -13 -3
-22 -1 -19 3 5 9 44 13 44 5z m2660 -9 c0 -10 -80 -6 -86 5 -3 4 16 6 41 5 25
-1 45 -6 45 -10z m120 3 c-20 -13 -60 -13 -60 0 0 6 17 10 38 10 27 0 33 -3
22 -10z m930 1 c0 -4 -28 -8 -62 -8 -52 0 -57 1 -28 7 51 11 90 11 90 1z m175
-1 c-11 -5 -51 -9 -90 -9 -91 0 -58 14 37 15 47 1 66 -1 53 -6z m-3948 -22
c-3 -8 -6 -5 -6 6 -1 11 2 17 5 13 3 -3 4 -12 1 -19z m2600 16 c-3 -3 -12 -4
-19 -1 -8 3 -5 6 6 6 11 1 17 -2 13 -5z m1016 -1 c-13 -2 -33 -2 -45 0 -13 2
-3 4 22 4 25 0 35 -2 23 -4z m1652 -3 c7 -12 -2 -12 -30 0 -19 8 -19 9 2 9 12
1 25 -3 28 -9z m-929 -55 c-16 -9 -31 -13 -34 -10 -3 3 0 5 7 5 7 0 9 5 6 10
-4 6 6 10 22 10 l28 0 -29 -15z m594 -35 c-8 -5 -19 -10 -25 -10 -5 0 -3 5 5
10 8 5 20 10 25 10 6 0 3 -5 -5 -10z m101 -8 c-7 -2 -18 1 -23 6 -8 8 -4 9 13
5 13 -4 18 -8 10 -11z m-934 -18 c-3 -3 -12 -4 -19 -1 -8 3 -5 6 6 6 11 1 17
-2 13 -5z m-982 -24 c3 -5 -1 -10 -10 -10 -9 0 -13 5 -10 10 3 6 8 10 10 10 2
0 7 -4 10 -10z m-302 -22 c-2 -5 -13 -8 -24 -8 -10 0 -19 3 -19 8 0 4 11 7 24
7 13 0 22 -3 19 -7z m227 2 c0 -5 -4 -10 -10 -10 -5 0 -10 5 -10 10 0 6 5 10
10 10 6 0 10 -4 10 -10z m-1013 -22 c-3 -8 -6 -5 -6 6 -1 11 2 17 5 13 3 -3 4
-12 1 -19z m210 -4 c-3 -3 -12 -4 -19 -1 -8 3 -5 6 6 6 11 1 17 -2 13 -5z
m-684 -11 c-7 -2 -19 -2 -25 0 -7 3 -2 5 12 5 14 0 19 -2 13 -5z m161 -8 c-6
-14 -44 -22 -44 -10 0 4 29 19 47 24 1 1 0 -6 -3 -14z m-1374 -5 c0 -5 10 -10
23 -11 12 0 16 -3 10 -6 -7 -2 -13 -11 -13 -19 0 -16 -5 -17 -49 -8 -37 8 -41
24 -6 24 14 0 25 5 25 11 0 6 -9 8 -20 4 -11 -4 -20 -2 -20 4 0 6 11 11 25 11
14 0 25 -4 25 -10z m510 -15 c0 -8 -4 -15 -8 -15 -5 0 -9 7 -9 15 0 8 4 15 9
15 4 0 8 -7 8 -15z m-144 -13 c-10 -2 -22 0 -28 6 -6 6 0 7 19 4 21 -5 23 -7
9 -10z m84 7 c0 -5 -14 -9 -31 -9 -16 0 -28 4 -25 9 3 5 17 9 31 9 14 0 25 -4
25 -9z m180 7 c0 -2 -9 -6 -20 -9 -11 -3 -18 -1 -14 4 5 9 34 13 34 5z m1050
-6 c0 -5 -4 -10 -10 -10 -5 0 -10 5 -10 10 0 6 5 10 10 10 6 0 10 -4 10 -10z
m-1112 -7 c-10 -2 -26 -2 -35 0 -10 3 -2 5 17 5 19 0 27 -2 18 -5z m155 -13
c3 -11 1 -18 -4 -14 -5 3 -9 12 -9 20 0 20 7 17 13 -6z m-1013 -4 c0 -2 -13
-6 -29 -8 -17 -2 -28 -1 -25 4 5 8 54 12 54 4z m364 -12 c18 -7 12 -24 -10
-24 -8 0 -14 7 -14 15 0 17 2 18 24 9z"/>
<path d="M4538 1803 c7 -3 16 -2 19 1 4 3 -2 6 -13 5 -11 0 -14 -3 -6 -6z"/>
<path d="M1167 1779 c19 -19 78 -36 99 -28 17 6 17 8 -6 16 -14 6 -43 13 -65
17 -32 6 -38 5 -28 -5z"/>
<path d="M1607 1774 c-3 -3 -30 -10 -59 -14 l-53 -9 58 3 c31 1 57 -1 57 -6 0
-4 21 -8 47 -8 l48 0 -38 20 c-39 21 -50 24 -60 14z"/>
<path d="M3118 1753 c6 -2 18 -2 25 0 6 3 1 5 -13 5 -14 0 -19 -2 -12 -5z"/>
<path d="M1805 1730 c28 -12 55 -12 55 0 0 6 -17 10 -37 9 -31 0 -34 -2 -18
-9z"/>
<path d="M2280 1729 c-36 -5 -86 -8 -111 -8 -29 0 -50 -6 -59 -16 -11 -13 -9
-15 14 -15 14 0 26 5 26 10 0 15 44 12 66 -5 17 -13 5 -14 -110 -10 -72 3
-134 9 -140 15 -13 13 -83 13 -91 1 -6 -10 21 -41 36 -41 5 0 9 -7 9 -15 0
-10 10 -15 28 -15 20 0 23 3 13 9 -10 6 1 8 30 4 24 -3 47 -11 51 -16 3 -6 15
-13 25 -15 36 -9 340 -14 430 -7 87 6 92 8 83 26 -6 10 -17 19 -25 19 -8 0
-15 5 -15 10 0 6 -5 10 -12 10 -6 0 -19 7 -28 15 -9 8 -33 16 -54 19 -20 3
-44 10 -52 17 -12 10 -13 9 -8 -5 5 -12 2 -15 -10 -10 -8 3 -14 11 -13 16 3
15 -10 16 -83 7z m40 -34 c0 -9 -6 -12 -16 -8 -13 5 -13 7 -2 14 17 11 18 11
18 -6z m-389 -16 c-16 -6 -28 -6 -35 1 -7 7 1 10 25 9 32 0 33 -1 10 -10z
m426 5 c-3 -3 -12 -4 -19 -1 -8 3 -5 6 6 6 11 1 17 -2 13 -5z"/>
<path d="M1716 1721 c-4 -6 -20 -11 -35 -11 -15 0 -35 -6 -44 -13 -15 -10 -10
-12 35 -14 28 -1 63 -4 77 -8 25 -5 25 -5 6 11 -19 15 -19 15 8 9 17 -5 27 -3
27 4 0 6 -10 11 -23 11 -13 0 -28 5 -34 11 -8 8 -13 8 -17 0z"/>
<path d="M3660 1720 c0 -5 5 -10 11 -10 5 0 7 5 4 10 -3 6 -8 10 -11 10 -2 0
-4 -4 -4 -10z"/>
<path d="M245 1711 l-40 -7 43 -8 c23 -4 42 -12 42 -18 0 -5 5 -8 11 -6 6 2
11 8 11 13 0 6 4 16 10 23 12 13 -6 14 -77 3z"/>
<path d="M3300 1711 c0 -5 15 -12 33 -14 17 -3 -62 -3 -178 -1 -127 2 -216 0
-225 -6 -11 -7 7 -10 60 -11 41 -1 81 -1 89 0 8 2 10 -2 5 -11 -6 -10 -5 -11
7 -1 11 9 56 11 168 7 120 -5 155 -3 161 7 7 10 12 10 23 0 9 -7 26 -9 41 -5
15 3 32 1 39 -5 19 -15 112 -2 96 13 -2 2 -52 7 -111 10 -60 2 -113 8 -119 11
-18 12 -89 16 -89 6z"/>
<path d="M90 1700 c0 -5 9 -10 20 -10 11 0 20 -5 20 -11 0 -5 5 -7 10 -4 6 4
8 10 5 15 -3 4 1 11 7 13 7 3 -4 6 -24 6 -21 1 -38 -3 -38 -9z"/>
<path d="M1448 1703 c6 -2 18 -2 25 0 6 3 1 5 -13 5 -14 0 -19 -2 -12 -5z"/>
<path d="M1818 1703 c-10 -2 -18 -11 -18 -19 0 -20 13 -17 28 6 7 11 11 19 10
19 -2 -1 -11 -3 -20 -6z"/>
<path d="M2509 1696 c10 -11 38 -14 84 -7 4 1 7 6 7 11 0 6 -23 10 -51 10 -43
0 -49 -2 -40 -14z"/>
<path d="M2628 1688 c13 -13 60 -14 73 -1 6 6 -7 10 -37 11 -32 0 -43 -3 -36
-10z"/>
<path d="M2740 1690 c20 -13 60 -13 60 0 0 6 -17 10 -37 10 -28 0 -34 -3 -23
-10z"/>
<path d="M2843 1683 c15 -2 37 -2 50 0 12 2 0 4 -28 4 -27 0 -38 -2 -22 -4z"/>
<path d="M2705 1660 c-3 -5 1 -10 10 -10 9 0 13 5 10 10 -3 6 -8 10 -10 10 -2
0 -7 -4 -10 -10z"/>
<path d="M2838 1643 c6 -2 18 -2 25 0 6 3 1 5 -13 5 -14 0 -19 -2 -12 -5z"/>
<path d="M3610 1643 c0 -5 5 -15 10 -23 7 -11 12 -12 21 -3 6 6 8 16 5 22 -8
12 -36 15 -36 4z"/>
<path d="M1650 1636 c0 -2 7 -7 16 -10 8 -3 12 -2 9 4 -6 10 -25 14 -25 6z"/>
<path d="M4455 1630 c3 -5 13 -10 21 -10 8 0 14 5 14 10 0 6 -9 10 -21 10 -11
0 -17 -4 -14 -10z"/>
<path d="M4842 1605 c9 -9 119 -11 124 -3 3 4 -25 8 -62 8 -37 0 -65 -2 -62
-5z"/>
<path d="M4228 1593 c7 -3 16 -2 19 1 4 3 -2 6 -13 5 -11 0 -14 -3 -6 -6z"/>
<path d="M4288 1593 c7 -3 16 -2 19 1 4 3 -2 6 -13 5 -11 0 -14 -3 -6 -6z"/>
<path d="M4758 1553 c6 -2 18 -2 25 0 6 3 1 5 -13 5 -14 0 -19 -2 -12 -5z"/>
<path d="M1778 1523 c18 -2 45 -2 60 0 15 2 0 4 -33 4 -33 0 -45 -2 -27 -4z"/>
<path d="M3485 1441 c-15 -6 -7 -9 31 -12 38 -3 50 -1 47 9 -6 13 -47 15 -78
3z"/>
<path d="M3990 1440 l-35 -7 38 -2 c20 0 37 4 37 9 0 6 -1 9 -2 9 -2 -1 -19
-5 -38 -9z"/>
<path d="M4068 1433 c7 -3 16 -2 19 1 4 3 -2 6 -13 5 -11 0 -14 -3 -6 -6z"/>
<path d="M2337 1398 c2 -5 18 -8 35 -8 17 0 28 3 24 8 -4 4 -20 7 -36 7 -15 0
-26 -3 -23 -7z"/>
<path d="M2458 1393 c6 -2 18 -2 25 0 6 3 1 5 -13 5 -14 0 -19 -2 -12 -5z"/>
<path d="M2877 1389 c7 -7 15 -10 18 -7 3 3 -2 9 -12 12 -14 6 -15 5 -6 -5z"/>
<path d="M1688 1383 c7 -3 16 -2 19 1 4 3 -2 6 -13 5 -11 0 -14 -3 -6 -6z"/>
<path d="M1853 1383 c9 -2 23 -2 30 0 6 3 -1 5 -18 5 -16 0 -22 -2 -12 -5z"/>
<path d="M2083 1349 c14 -8 22 -8 30 0 8 8 3 11 -18 11 -26 -1 -28 -2 -12 -11z"/>
<path d="M183 1343 c9 -2 23 -2 30 0 6 3 -1 5 -18 5 -16 0 -22 -2 -12 -5z"/>
<path d="M1765 1340 c-3 -5 -2 -10 4 -10 5 0 13 5 16 10 3 6 2 10 -4 10 -5 0
-13 -4 -16 -10z"/>
<path d="M755 1330 c-18 -7 -18 -8 -2 -14 40 -14 47 -15 47 -5 0 5 10 14 23
19 19 8 18 9 -13 9 -19 0 -44 -4 -55 -9z"/>
<path d="M1528 1333 c12 -2 30 -2 40 0 9 3 -1 5 -23 4 -22 0 -30 -2 -17 -4z"/>
<path d="M40 1299 c0 -5 5 -7 10 -4 6 3 10 8 10 11 0 2 -4 4 -10 4 -5 0 -10
-5 -10 -11z"/>
<path d="M273 1303 c9 -2 23 -2 30 0 6 3 -1 5 -18 5 -16 0 -22 -2 -12 -5z"/>
<path d="M0 1284 c0 -14 3 -14 15 -4 8 7 15 14 15 16 0 2 -7 4 -15 4 -8 0 -15
-7 -15 -16z"/>
<path d="M90 1285 c0 -17 21 -20 36 -6 5 5 18 11 29 14 11 3 1 5 -22 6 -32 1
-43 -3 -43 -14z"/>
<path d="M193 1293 c9 -2 25 -2 35 0 9 3 1 5 -18 5 -19 0 -27 -2 -17 -5z"/>
<path d="M210 1260 c0 -5 7 -10 16 -10 8 0 12 5 9 10 -3 6 -10 10 -16 10 -5 0
-9 -4 -9 -10z"/>
<path d="M56 1245 c4 -8 10 -12 15 -9 11 6 2 24 -11 24 -5 0 -7 -7 -4 -15z"/>
<path d="M2605 1220 c3 -5 15 -10 25 -10 10 0 22 5 25 10 4 6 -7 10 -25 10
-18 0 -29 -4 -25 -10z"/>
<path d="M2988 1213 c6 -2 18 -2 25 0 6 3 1 5 -13 5 -14 0 -19 -2 -12 -5z"/>
<path d="M3048 1213 c12 -2 30 -2 40 0 9 3 -1 5 -23 4 -22 0 -30 -2 -17 -4z"/>
<path d="M3368 1203 c12 -2 30 -2 40 0 9 3 -1 5 -23 4 -22 0 -30 -2 -17 -4z"/>
<path d="M3645 1200 c11 -5 74 -8 140 -8 110 1 114 2 50 8 -102 11 -215 11
-190 0z"/>
<path d="M3950 1191 c0 -4 11 -6 25 -3 14 2 25 6 25 8 0 2 -11 4 -25 4 -14 0
-25 -4 -25 -9z"/>
<path d="M4178 1183 c6 -2 18 -2 25 0 6 3 1 5 -13 5 -14 0 -19 -2 -12 -5z"/>
<path d="M5390 1181 c-74 -4 -140 -10 -147 -14 -15 -10 -5 -37 14 -37 8 0 12
-4 9 -9 -7 -11 -156 -8 -201 3 -19 5 -25 4 -17 -1 7 -6 10 -17 7 -25 -4 -11 2
-17 19 -22 14 -3 26 -10 26 -15 0 -8 -150 -23 -253 -25 -31 -1 -57 -5 -57 -9
0 -4 -24 -8 -52 -7 -29 0 -84 -3 -123 -8 -38 -5 -73 -7 -77 -5 -5 2 -8 0 -8
-5 0 -5 -19 -10 -42 -10 -55 -2 -114 -10 -155 -23 -18 -6 -48 -9 -66 -8 -18 2
-37 0 -43 -3 -5 -4 -64 -10 -129 -13 -66 -4 -123 -9 -126 -11 -3 -1 -77 -4
-165 -5 -145 -3 -277 -14 -201 -18 29 -1 38 -21 10 -21 -65 -1 -200 -14 -208
-20 -5 -3 -72 -8 -148 -9 -104 -1 -145 -6 -162 -17 -20 -13 -47 -18 -123 -23
-13 0 -20 -5 -17 -11 3 -5 -1 -10 -10 -10 -9 0 -13 5 -10 10 3 6 1 10 -4 10
-6 0 -11 -4 -11 -10 0 -17 -40 -33 -54 -21 -7 6 -15 9 -17 6 -3 -2 -43 -7 -90
-10 -46 -2 -124 -7 -174 -10 -138 -9 -312 -16 -398 -16 -59 0 -77 -4 -77 -15
0 -10 11 -12 48 -8 43 5 46 4 28 -10 -10 -8 -23 -13 -27 -10 -4 2 -25 -2 -45
-11 -43 -18 -47 -18 -39 -5 3 6 -4 10 -17 10 -18 0 -20 -2 -8 -10 8 -5 10 -10
5 -10 -6 0 -16 5 -22 11 -20 20 -283 -13 -283 -35 0 -6 -5 -3 -11 6 -13 23
-54 25 -45 3 4 -12 -5 -15 -47 -16 -29 -1 -64 0 -80 1 -15 1 -27 -3 -27 -8 0
-13 -100 -14 -116 -1 -7 6 -23 7 -36 3 -12 -3 -53 -6 -90 -5 -41 1 -68 -2 -68
-9 0 -6 -25 -10 -59 -10 -33 0 -63 -5 -66 -10 -5 -8 -11 -7 -20 0 -8 7 -27 9
-42 6 -15 -3 -59 -8 -98 -11 -38 -3 -89 -8 -113 -11 -30 -5 -42 -3 -42 6 0 9
-4 9 -12 2 -7 -5 -51 -13 -98 -16 -47 -4 -114 -11 -150 -17 -71 -10 -192 -18
-398 -25 l-132 -5 0 -30 0 -30 113 6 c61 4 119 9 127 12 17 5 200 22 324 29
43 2 127 9 185 14 58 6 221 19 361 31 140 11 300 24 355 29 156 14 334 29 405
35 36 3 148 14 250 25 102 11 230 25 285 31 55 6 118 14 140 19 22 5 119 16
215 25 166 15 371 43 470 65 25 6 122 17 215 25 218 19 318 32 358 44 35 11
189 27 397 41 75 5 142 11 150 14 8 3 83 10 165 16 83 6 191 17 240 25 114 18
313 42 432 54 57 5 106 16 130 28 24 13 70 23 123 27 121 10 120 10 120 62 0
36 -3 44 -17 42 -10 -1 -79 -4 -153 -7z m-82 -28 c-10 -2 -26 -2 -35 0 -10 3
-2 5 17 5 19 0 27 -2 18 -5z m208 -12 c-3 -4 -35 -9 -72 -10 -36 -1 -73 -5
-80 -9 -19 -11 -84 -3 -84 10 0 6 16 8 35 6 19 -2 35 0 35 4 0 4 39 8 86 8 47
0 83 -4 80 -9z m-406 -41 c-13 -8 -12 -10 4 -10 11 0 17 -2 14 -5 -3 -4 -18
-3 -33 1 -20 5 -23 9 -13 15 7 5 20 9 28 9 13 0 13 -1 0 -10z m-1233 -186 c-3
-3 -12 -4 -19 -1 -8 3 -5 6 6 6 11 1 17 -2 13 -5z m-672 -84 c4 -6 -6 -10 -22
-9 -25 0 -26 1 -8 9 11 5 21 9 22 9 1 1 5 -3 8 -9z m-118 -26 c-3 -3 -12 -4
-19 -1 -8 3 -5 6 6 6 11 1 17 -2 13 -5z m-567 -58 c0 -2 -7 -7 -16 -10 -8 -3
-12 -2 -9 4 6 10 25 14 25 6z m-133 -22 c-3 -3 -12 -4 -19 -1 -8 3 -5 6 6 6
11 1 17 -2 13 -5z m-1750 -150 c-3 -3 -12 -4 -19 -1 -8 3 -5 6 6 6 11 1 17 -2
13 -5z"/>
<path d="M4965 1170 c3 -4 25 -8 50 -8 25 -1 50 -4 56 -8 5 -3 16 -1 24 6 9 7
15 8 20 0 3 -5 0 -10 -7 -11 -7 0 -4 -4 7 -8 23 -9 48 -3 40 9 -3 5 5 11 17
13 13 2 8 3 -9 1 -18 -1 -33 2 -33 7 0 5 -36 9 -85 8 -47 -1 -83 -5 -80 -9z"/>
<path d="M4636 1151 c-15 -6 -16 -9 -5 -13 8 -2 25 1 39 9 22 11 22 13 5 12
-11 0 -29 -4 -39 -8z"/>
<path d="M4986 1138 c3 -4 14 -8 25 -8 11 0 18 4 14 9 -3 6 -14 9 -25 8 -10
-1 -16 -5 -14 -9z"/>
<path d="M4470 1130 c0 -5 9 -10 20 -10 11 0 20 5 20 10 0 6 -9 10 -20 10 -11
0 -20 -4 -20 -10z"/>
<path d="M4696 1125 c25 -19 39 -19 54 0 11 13 7 15 -31 15 -40 0 -41 -1 -23
-15z"/>
<path d="M3848 1103 c6 -2 18 -2 25 0 6 3 1 5 -13 5 -14 0 -19 -2 -12 -5z"/>
<path d="M5005 1099 c-11 -17 -2 -18 19 -3 17 12 17 14 4 14 -9 0 -20 -5 -23
-11z"/>
<path d="M4573 1093 c9 -2 25 -2 35 0 9 3 1 5 -18 5 -19 0 -27 -2 -17 -5z"/>
<path d="M4648 1093 c12 -2 30 -2 40 0 9 3 -1 5 -23 4 -22 0 -30 -2 -17 -4z"/>
<path d="M4905 1090 c3 -5 13 -10 21 -10 8 0 14 5 14 10 0 6 -9 10 -21 10 -11
0 -17 -4 -14 -10z"/>
<path d="M2228 1063 c7 -3 16 -2 19 1 4 3 -2 6 -13 5 -11 0 -14 -3 -6 -6z"/>
<path d="M1918 1033 c18 -2 45 -2 60 0 15 2 0 4 -33 4 -33 0 -45 -2 -27 -4z"/>
<path d="M455 970 c-45 -6 -43 -7 33 -8 49 -1 82 2 82 8 0 11 -36 11 -115 0z"/>
<path d="M3298 933 c6 -2 18 -2 25 0 6 3 1 5 -13 5 -14 0 -19 -2 -12 -5z"/>
<path d="M3528 913 c7 -3 16 -2 19 1 4 3 -2 6 -13 5 -11 0 -14 -3 -6 -6z"/>
<path d="M2618 903 c7 -3 16 -2 19 1 4 3 -2 6 -13 5 -11 0 -14 -3 -6 -6z"/>
<path d="M1848 893 c6 -2 18 -2 25 0 6 3 1 5 -13 5 -14 0 -19 -2 -12 -5z"/>
<path d="M2985 850 c4 -6 11 -8 16 -5 14 9 11 15 -7 15 -8 0 -12 -5 -9 -10z"/>
<path d="M1812 735 c-10 -12 -10 -15 1 -15 8 0 20 7 27 15 17 21 -10 20 -28 0z"/>
<path d="M2018 743 c6 -2 18 -2 25 0 6 3 1 5 -13 5 -14 0 -19 -2 -12 -5z"/>
<path d="M910 670 c0 -5 12 -10 26 -10 14 0 23 4 19 10 -3 6 -15 10 -26 10
-10 0 -19 -4 -19 -10z"/>
<path d="M1035 670 c-22 -5 -7 -8 53 -9 49 -1 82 3 82 9 0 11 -90 11 -135 0z"/>
<path d="M1568 673 c7 -3 16 -2 19 1 4 3 -2 6 -13 5 -11 0 -14 -3 -6 -6z"/>
<path d="M1233 663 c9 -2 23 -2 30 0 6 3 -1 5 -18 5 -16 0 -22 -2 -12 -5z"/>
</g>
</svg>
